<svg xmlns="http://www.w3.org/2000/svg" xmlns:xlink="http://www.w3.org/1999/xlink" width="500" zoomAndPan="magnify" viewBox="0 0 375 374.999991" height="500" preserveAspectRatio="xMidYMid meet" version="1.0"><defs><g/><clipPath id="11c9cbf962"><path d="M 202 160 L 213 160 L 213 171 L 202 171 Z M 202 160 " clip-rule="nonzero"/></clipPath><clipPath id="c20ca15d14"><path d="M 198.917969 88.652344 L 246.648438 136.382812 L 176.113281 206.917969 L 128.386719 159.1875 Z M 198.917969 88.652344 " clip-rule="nonzero"/></clipPath><clipPath id="36fa6a7528"><path d="M 198.917969 88.652344 L 246.648438 136.382812 L 176.113281 206.917969 L 128.386719 159.1875 Z M 198.917969 88.652344 " clip-rule="nonzero"/></clipPath><clipPath id="eadc26bd72"><path d="M 162 125 L 173 125 L 173 135 L 162 135 Z M 162 125 " clip-rule="nonzero"/></clipPath><clipPath id="7fb8a6d872"><path d="M 198.917969 88.652344 L 246.648438 136.382812 L 176.113281 206.917969 L 128.386719 159.1875 Z M 198.917969 88.652344 " clip-rule="nonzero"/></clipPath><clipPath id="5f6d0bb995"><path d="M 198.917969 88.652344 L 246.648438 136.382812 L 176.113281 206.917969 L 128.386719 159.1875 Z M 198.917969 88.652344 " clip-rule="nonzero"/></clipPath><clipPath id="43c3c004de"><path d="M 140 108 L 235 108 L 235 187 L 140 187 Z M 140 108 " clip-rule="nonzero"/></clipPath><clipPath id="f6032f41cf"><path d="M 198.917969 88.652344 L 246.648438 136.382812 L 176.113281 206.917969 L 128.386719 159.1875 Z M 198.917969 88.652344 " clip-rule="nonzero"/></clipPath><clipPath id="d140824d81"><path d="M 198.917969 88.652344 L 246.648438 136.382812 L 176.113281 206.917969 L 128.386719 159.1875 Z M 198.917969 88.652344 " clip-rule="nonzero"/></clipPath><clipPath id="40ac09a9fc"><path d="M 162 142 L 173 142 L 173 153 L 162 153 Z M 162 142 " clip-rule="nonzero"/></clipPath><clipPath id="0d39d5f246"><path d="M 198.917969 88.652344 L 246.648438 136.382812 L 176.113281 206.917969 L 128.386719 159.1875 Z M 198.917969 88.652344 " clip-rule="nonzero"/></clipPath><clipPath id="739d954817"><path d="M 198.917969 88.652344 L 246.648438 136.382812 L 176.113281 206.917969 L 128.386719 159.1875 Z M 198.917969 88.652344 " clip-rule="nonzero"/></clipPath><clipPath id="0c9b3f8846"><path d="M 202 142 L 213 142 L 213 153 L 202 153 Z M 202 142 " clip-rule="nonzero"/></clipPath><clipPath id="9a75e6e010"><path d="M 198.917969 88.652344 L 246.648438 136.382812 L 176.113281 206.917969 L 128.386719 159.1875 Z M 198.917969 88.652344 " clip-rule="nonzero"/></clipPath><clipPath id="7c0ff4a642"><path d="M 198.917969 88.652344 L 246.648438 136.382812 L 176.113281 206.917969 L 128.386719 159.1875 Z M 198.917969 88.652344 " clip-rule="nonzero"/></clipPath></defs><g clip-path="url(#11c9cbf962)"><g clip-path="url(#c20ca15d14)"><g clip-path="url(#36fa6a7528)"><path fill="#8c52ff" d="M 212.394531 165.675781 C 212.394531 162.980469 210.203125 160.785156 207.503906 160.785156 C 204.808594 160.785156 202.613281 162.976562 202.617188 165.671875 C 202.617188 168.371094 204.808594 170.5625 207.507812 170.5625 C 210.203125 170.566406 212.394531 168.371094 212.394531 165.675781 Z M 212.394531 165.675781 " fill-opacity="1" fill-rule="evenodd"/></g></g></g><g clip-path="url(#eadc26bd72)"><g clip-path="url(#7fb8a6d872)"><g clip-path="url(#5f6d0bb995)"><path fill="#8c52ff" d="M 162.640625 129.894531 C 162.640625 132.59375 164.832031 134.785156 167.53125 134.785156 C 170.226562 134.785156 172.417969 132.59375 172.417969 129.898438 C 172.417969 127.199219 170.226562 125.007812 167.527344 125.007812 C 164.832031 125.007812 162.640625 127.199219 162.640625 129.894531 Z M 162.640625 129.894531 " fill-opacity="1" fill-rule="evenodd"/></g></g></g><g clip-path="url(#43c3c004de)"><g clip-path="url(#f6032f41cf)"><g clip-path="url(#d140824d81)"><path fill="#5271ff" d="M 180.152344 160.933594 L 180.148438 136.269531 L 180.148438 136.1875 C 180.148438 121.140625 192.445312 108.839844 207.496094 108.84375 C 222.542969 108.847656 234.847656 121.148438 234.851562 136.199219 L 234.851562 136.898438 C 234.851562 147.253906 229.027344 156.3125 220.472656 160.953125 L 220.125 160.953125 L 220.109375 129.753906 L 212.367188 129.75 C 212.367188 132.449219 210.175781 134.640625 207.480469 134.640625 C 204.78125 134.640625 202.589844 132.445312 202.589844 129.75 L 194.847656 129.746094 L 194.847656 134.648438 L 194.851562 158.261719 L 194.851562 159.414062 C 194.855469 174.464844 182.558594 186.761719 167.507812 186.757812 C 152.457031 186.757812 140.15625 174.453125 140.152344 159.402344 L 140.152344 158.703125 C 140.152344 148.347656 145.976562 139.292969 154.527344 134.652344 L 154.878906 134.652344 L 154.882812 165.859375 L 162.625 165.863281 C 162.625 163.164062 164.816406 160.972656 167.515625 160.972656 C 170.210938 160.972656 172.402344 163.167969 172.402344 165.863281 L 180.144531 165.863281 L 180.144531 160.964844 Z M 180.152344 160.933594 " fill-opacity="1" fill-rule="evenodd"/></g></g></g><g clip-path="url(#40ac09a9fc)"><g clip-path="url(#0d39d5f246)"><g clip-path="url(#739d954817)"><path fill="#8c52ff" d="M 167.53125 152.757812 C 170.230469 152.757812 172.421875 150.566406 172.421875 147.871094 C 172.421875 145.171875 170.226562 142.980469 167.53125 142.980469 C 164.835938 142.980469 162.640625 145.171875 162.640625 147.867188 C 162.644531 150.566406 164.835938 152.757812 167.53125 152.757812 Z M 167.53125 152.757812 " fill-opacity="1" fill-rule="evenodd"/></g></g></g><g clip-path="url(#0c9b3f8846)"><g clip-path="url(#9a75e6e010)"><g clip-path="url(#7c0ff4a642)"><path fill="#8c52ff" d="M 207.5 142.8125 C 204.804688 142.8125 202.613281 145.003906 202.613281 147.699219 C 202.613281 150.398438 204.804688 152.589844 207.503906 152.589844 C 210.199219 152.59375 212.390625 150.398438 212.390625 147.703125 C 212.390625 145.007812 210.199219 142.8125 207.5 142.8125 Z M 207.5 142.8125 " fill-opacity="1" fill-rule="evenodd"/></g></g></g><g fill="#000000" fill-opacity="0.4"><g transform="translate(130.853229, 227.395137)"><g><path d="M 13.09375 -27.375 L 20.546875 -27.375 L 20.546875 -5.28125 C 20.546875 -1.757812 18.457031 0 14.28125 0 L 7.96875 0 C 3.789062 0 1.703125 -1.757812 1.703125 -5.28125 L 1.703125 -27.375 L 9.171875 -27.375 L 9.171875 -6.265625 C 9.171875 -5.640625 9.523438 -5.328125 10.234375 -5.328125 L 12.03125 -5.328125 C 12.738281 -5.328125 13.09375 -5.640625 13.09375 -6.265625 Z M 13.09375 -27.375 "/></g></g></g><g fill="#000000" fill-opacity="0.4"><g transform="translate(152.254698, 227.395137)"><g><path d="M 12.703125 -21.28125 L 13.46875 -21.28125 C 17.25 -21.28125 19.140625 -19.515625 19.140625 -15.984375 L 19.140625 0 L 11.890625 0 L 11.890625 -15.015625 C 11.890625 -15.640625 11.535156 -15.953125 10.828125 -15.953125 L 10.109375 -15.953125 C 9.335938 -15.953125 8.953125 -15.523438 8.953125 -14.671875 L 8.953125 0 L 1.703125 0 L 1.703125 -21.28125 L 8.828125 -21.28125 L 8.828125 -18.546875 C 9.222656 -20.367188 10.515625 -21.28125 12.703125 -21.28125 Z M 12.703125 -21.28125 "/></g></g></g><g fill="#000000" fill-opacity="0.4"><g transform="translate(172.036119, 227.395137)"><g><path d="M 1.578125 -23.40625 L 1.578125 -28.53125 L 9.078125 -28.53125 L 9.078125 -23.40625 Z M 8.953125 0 L 1.703125 0 L 1.703125 -21.28125 L 8.953125 -21.28125 Z M 8.953125 0 "/></g></g></g><g fill="#000000" fill-opacity="0.4"><g transform="translate(181.841462, 227.395137)"><g><path d="M 18.375 -13.046875 L 11.390625 -13.046875 L 11.390625 -15.015625 C 11.390625 -15.640625 11.03125 -15.953125 10.3125 -15.953125 L 9.59375 -15.953125 C 8.882812 -15.953125 8.53125 -15.640625 8.53125 -15.015625 L 8.53125 -6.265625 C 8.53125 -5.640625 8.882812 -5.328125 9.59375 -5.328125 L 10.3125 -5.328125 C 11.03125 -5.328125 11.390625 -5.640625 11.390625 -6.265625 L 11.390625 -8.234375 L 18.375 -8.234375 L 18.375 -5.28125 C 18.375 -1.757812 16.285156 0 12.109375 0 L 7.546875 0 C 3.367188 0 1.28125 -1.757812 1.28125 -5.28125 L 1.28125 -15.984375 C 1.28125 -19.515625 3.367188 -21.28125 7.546875 -21.28125 L 12.109375 -21.28125 C 16.285156 -21.28125 18.375 -19.515625 18.375 -15.984375 Z M 18.375 -13.046875 "/></g></g></g><g fill="#000000" fill-opacity="0.4"><g transform="translate(200.216003, 227.395137)"><g><path d="M 1.578125 -23.40625 L 1.578125 -28.53125 L 9.078125 -28.53125 L 9.078125 -23.40625 Z M 8.953125 0 L 1.703125 0 L 1.703125 -21.28125 L 8.953125 -21.28125 Z M 8.953125 0 "/></g></g></g><g fill="#000000" fill-opacity="0.4"><g transform="translate(210.021346, 227.395137)"><g><path d="M 12.703125 -21.28125 L 13.46875 -21.28125 C 17.25 -21.28125 19.140625 -19.515625 19.140625 -15.984375 L 19.140625 0 L 11.890625 0 L 11.890625 -15.015625 C 11.890625 -15.640625 11.535156 -15.953125 10.828125 -15.953125 L 10.109375 -15.953125 C 9.335938 -15.953125 8.953125 -15.523438 8.953125 -14.671875 L 8.953125 0 L 1.703125 0 L 1.703125 -21.28125 L 8.828125 -21.28125 L 8.828125 -18.546875 C 9.222656 -20.367188 10.515625 -21.28125 12.703125 -21.28125 Z M 12.703125 -21.28125 "/></g></g></g><g fill="#000000" fill-opacity="0.4"><g transform="translate(229.802766, 227.395137)"><g><path d="M 7.546875 -21.28125 L 12.75 -21.28125 C 16.925781 -21.28125 19.015625 -19.515625 19.015625 -15.984375 L 19.015625 -8.734375 L 8.140625 -8.734375 L 8.140625 -5.921875 C 8.140625 -5.296875 8.492188 -4.984375 9.203125 -4.984375 L 11.09375 -4.984375 C 11.800781 -4.984375 12.15625 -5.328125 12.15625 -6.015625 L 12.15625 -7.203125 L 19.015625 -7.203125 L 19.015625 -5.28125 C 19.015625 -1.757812 16.925781 0 12.75 0 L 7.546875 0 C 3.367188 0 1.28125 -1.757812 1.28125 -5.28125 L 1.28125 -15.984375 C 1.28125 -19.515625 3.367188 -21.28125 7.546875 -21.28125 Z M 8.140625 -12.671875 L 12.15625 -12.671875 L 12.15625 -15.34375 C 12.15625 -15.96875 11.800781 -16.28125 11.09375 -16.28125 L 9.203125 -16.28125 C 8.492188 -16.28125 8.140625 -15.96875 8.140625 -15.34375 Z M 8.140625 -12.671875 "/></g></g></g><g fill="#ffffff" fill-opacity="1"><g transform="translate(127.985659, 224.096366)"><g><path d="M 13.09375 -27.375 L 20.546875 -27.375 L 20.546875 -5.28125 C 20.546875 -1.757812 18.457031 0 14.28125 0 L 7.96875 0 C 3.789062 0 1.703125 -1.757812 1.703125 -5.28125 L 1.703125 -27.375 L 9.171875 -27.375 L 9.171875 -6.265625 C 9.171875 -5.640625 9.523438 -5.328125 10.234375 -5.328125 L 12.03125 -5.328125 C 12.738281 -5.328125 13.09375 -5.640625 13.09375 -6.265625 Z M 13.09375 -27.375 "/></g></g></g><g fill="#ffffff" fill-opacity="1"><g transform="translate(149.387128, 224.096366)"><g><path d="M 12.703125 -21.28125 L 13.46875 -21.28125 C 17.25 -21.28125 19.140625 -19.515625 19.140625 -15.984375 L 19.140625 0 L 11.890625 0 L 11.890625 -15.015625 C 11.890625 -15.640625 11.535156 -15.953125 10.828125 -15.953125 L 10.109375 -15.953125 C 9.335938 -15.953125 8.953125 -15.523438 8.953125 -14.671875 L 8.953125 0 L 1.703125 0 L 1.703125 -21.28125 L 8.828125 -21.28125 L 8.828125 -18.546875 C 9.222656 -20.367188 10.515625 -21.28125 12.703125 -21.28125 Z M 12.703125 -21.28125 "/></g></g></g><g fill="#ffffff" fill-opacity="1"><g transform="translate(169.168548, 224.096366)"><g><path d="M 1.578125 -23.40625 L 1.578125 -28.53125 L 9.078125 -28.53125 L 9.078125 -23.40625 Z M 8.953125 0 L 1.703125 0 L 1.703125 -21.28125 L 8.953125 -21.28125 Z M 8.953125 0 "/></g></g></g><g fill="#ffffff" fill-opacity="1"><g transform="translate(178.973891, 224.096366)"><g><path d="M 18.375 -13.046875 L 11.390625 -13.046875 L 11.390625 -15.015625 C 11.390625 -15.640625 11.03125 -15.953125 10.3125 -15.953125 L 9.59375 -15.953125 C 8.882812 -15.953125 8.53125 -15.640625 8.53125 -15.015625 L 8.53125 -6.265625 C 8.53125 -5.640625 8.882812 -5.328125 9.59375 -5.328125 L 10.3125 -5.328125 C 11.03125 -5.328125 11.390625 -5.640625 11.390625 -6.265625 L 11.390625 -8.234375 L 18.375 -8.234375 L 18.375 -5.28125 C 18.375 -1.757812 16.285156 0 12.109375 0 L 7.546875 0 C 3.367188 0 1.28125 -1.757812 1.28125 -5.28125 L 1.28125 -15.984375 C 1.28125 -19.515625 3.367188 -21.28125 7.546875 -21.28125 L 12.109375 -21.28125 C 16.285156 -21.28125 18.375 -19.515625 18.375 -15.984375 Z M 18.375 -13.046875 "/></g></g></g><g fill="#ffffff" fill-opacity="1"><g transform="translate(197.348433, 224.096366)"><g><path d="M 1.578125 -23.40625 L 1.578125 -28.53125 L 9.078125 -28.53125 L 9.078125 -23.40625 Z M 8.953125 0 L 1.703125 0 L 1.703125 -21.28125 L 8.953125 -21.28125 Z M 8.953125 0 "/></g></g></g><g fill="#ffffff" fill-opacity="1"><g transform="translate(207.153776, 224.096366)"><g><path d="M 12.703125 -21.28125 L 13.46875 -21.28125 C 17.25 -21.28125 19.140625 -19.515625 19.140625 -15.984375 L 19.140625 0 L 11.890625 0 L 11.890625 -15.015625 C 11.890625 -15.640625 11.535156 -15.953125 10.828125 -15.953125 L 10.109375 -15.953125 C 9.335938 -15.953125 8.953125 -15.523438 8.953125 -14.671875 L 8.953125 0 L 1.703125 0 L 1.703125 -21.28125 L 8.828125 -21.28125 L 8.828125 -18.546875 C 9.222656 -20.367188 10.515625 -21.28125 12.703125 -21.28125 Z M 12.703125 -21.28125 "/></g></g></g><g fill="#ffffff" fill-opacity="1"><g transform="translate(226.935196, 224.096366)"><g><path d="M 7.546875 -21.28125 L 12.75 -21.28125 C 16.925781 -21.28125 19.015625 -19.515625 19.015625 -15.984375 L 19.015625 -8.734375 L 8.140625 -8.734375 L 8.140625 -5.921875 C 8.140625 -5.296875 8.492188 -4.984375 9.203125 -4.984375 L 11.09375 -4.984375 C 11.800781 -4.984375 12.15625 -5.328125 12.15625 -6.015625 L 12.15625 -7.203125 L 19.015625 -7.203125 L 19.015625 -5.28125 C 19.015625 -1.757812 16.925781 0 12.75 0 L 7.546875 0 C 3.367188 0 1.28125 -1.757812 1.28125 -5.28125 L 1.28125 -15.984375 C 1.28125 -19.515625 3.367188 -21.28125 7.546875 -21.28125 Z M 8.140625 -12.671875 L 12.15625 -12.671875 L 12.15625 -15.34375 C 12.15625 -15.96875 11.800781 -16.28125 11.09375 -16.28125 L 9.203125 -16.28125 C 8.492188 -16.28125 8.140625 -15.96875 8.140625 -15.34375 Z M 8.140625 -12.671875 "/></g></g></g><g fill="#20aad8" fill-opacity="0.4"><g transform="translate(145.974918, 244.194476)"><g><path d="M 8.609375 -7.359375 L 5.40625 -7.359375 L 5.40625 -9.25 C 5.40625 -9.519531 5.25 -9.65625 4.9375 -9.65625 L 4.296875 -9.65625 C 3.992188 -9.65625 3.84375 -9.519531 3.84375 -9.25 L 3.84375 -2.515625 C 3.84375 -2.242188 3.992188 -2.109375 4.296875 -2.109375 L 4.9375 -2.109375 C 5.25 -2.109375 5.40625 -2.242188 5.40625 -2.515625 L 5.40625 -4.328125 L 8.609375 -4.328125 L 8.609375 -2.265625 C 8.609375 -0.753906 7.710938 0 5.921875 0 L 3.328125 0 C 1.535156 0 0.640625 -0.753906 0.640625 -2.265625 L 0.640625 -9.484375 C 0.640625 -10.992188 1.535156 -11.75 3.328125 -11.75 L 5.921875 -11.75 C 7.710938 -11.75 8.609375 -10.992188 8.609375 -9.484375 Z M 8.609375 -7.359375 "/></g></g></g><g fill="#20aad8" fill-opacity="0.4"><g transform="translate(156.866928, 244.194476)"><g><path d="M 3.375 -11.75 L 6.078125 -11.75 C 7.867188 -11.75 8.765625 -10.992188 8.765625 -9.484375 L 8.765625 -2.265625 C 8.765625 -0.753906 7.867188 0 6.078125 0 L 3.375 0 C 1.570312 0 0.671875 -0.753906 0.671875 -2.265625 L 0.671875 -9.484375 C 0.671875 -10.992188 1.570312 -11.75 3.375 -11.75 Z M 5.5625 -2.6875 L 5.5625 -9.0625 C 5.5625 -9.332031 5.410156 -9.46875 5.109375 -9.46875 L 4.34375 -9.46875 C 4.03125 -9.46875 3.875 -9.332031 3.875 -9.0625 L 3.875 -2.6875 C 3.875 -2.414062 4.03125 -2.28125 4.34375 -2.28125 L 5.109375 -2.28125 C 5.410156 -2.28125 5.5625 -2.414062 5.5625 -2.6875 Z M 5.5625 -2.6875 "/></g></g></g><g fill="#20aad8" fill-opacity="0.4"><g transform="translate(168.143333, 244.194476)"><g><path d="M 3.9375 -2.28125 L 7.578125 -2.28125 L 7.578125 0 L 0.734375 0 L 0.734375 -11.75 L 3.9375 -11.75 Z M 3.9375 -2.28125 "/></g></g></g><g fill="#20aad8" fill-opacity="0.4"><g transform="translate(177.552667, 244.194476)"><g><path d="M 3.375 -11.75 L 6.078125 -11.75 C 7.867188 -11.75 8.765625 -10.992188 8.765625 -9.484375 L 8.765625 -2.265625 C 8.765625 -0.753906 7.867188 0 6.078125 0 L 3.375 0 C 1.570312 0 0.671875 -0.753906 0.671875 -2.265625 L 0.671875 -9.484375 C 0.671875 -10.992188 1.570312 -11.75 3.375 -11.75 Z M 5.5625 -2.6875 L 5.5625 -9.0625 C 5.5625 -9.332031 5.410156 -9.46875 5.109375 -9.46875 L 4.34375 -9.46875 C 4.03125 -9.46875 3.875 -9.332031 3.875 -9.0625 L 3.875 -2.6875 C 3.875 -2.414062 4.03125 -2.28125 4.34375 -2.28125 L 5.109375 -2.28125 C 5.410156 -2.28125 5.5625 -2.414062 5.5625 -2.6875 Z M 5.5625 -2.6875 "/></g></g></g><g fill="#20aad8" fill-opacity="0.4"><g transform="translate(188.829074, 244.194476)"><g><path d="M 3.59375 0 L 0.734375 0 L 0.734375 -11.75 L 4.234375 -11.75 L 6.140625 -5.46875 L 8.046875 -11.75 L 11.53125 -11.75 L 11.53125 0 L 8.703125 0 L 8.703125 -7.46875 L 7.234375 -2.546875 L 5.03125 -2.546875 L 3.59375 -7.4375 Z M 3.59375 0 "/></g></g></g><g fill="#20aad8" fill-opacity="0.4"><g transform="translate(202.9244, 244.194476)"><g><path d="M 5.65625 -7.34375 L 5.65625 -9.25 C 5.65625 -9.519531 5.503906 -9.65625 5.203125 -9.65625 L 3.875 -9.65625 L 3.875 -6.9375 L 5.203125 -6.9375 C 5.503906 -6.9375 5.65625 -7.070312 5.65625 -7.34375 Z M 5.65625 -2.515625 L 5.65625 -4.4375 C 5.65625 -4.695312 5.503906 -4.828125 5.203125 -4.828125 L 3.875 -4.828125 L 3.875 -2.109375 L 5.203125 -2.109375 C 5.503906 -2.109375 5.65625 -2.242188 5.65625 -2.515625 Z M 0.734375 -11.75 L 6.109375 -11.75 C 7.910156 -11.75 8.8125 -10.992188 8.8125 -9.484375 L 8.8125 -7.984375 C 8.8125 -6.921875 8.515625 -6.234375 7.921875 -5.921875 C 8.265625 -5.765625 8.5 -5.535156 8.625 -5.234375 C 8.75 -4.941406 8.8125 -4.539062 8.8125 -4.03125 L 8.8125 -2.265625 C 8.8125 -0.753906 7.910156 0 6.109375 0 L 0.734375 0 Z M 0.734375 -11.75 "/></g></g></g><g fill="#20aad8" fill-opacity="0.4"><g transform="translate(214.200807, 244.194476)"><g><path d="M 0.734375 -11.75 L 3.9375 -11.75 L 3.9375 0 L 0.734375 0 Z M 0.734375 -11.75 "/></g></g></g><g fill="#20aad8" fill-opacity="0.4"><g transform="translate(220.699706, 244.194476)"><g><path d="M 6.71875 0 L 6.359375 -1.765625 L 3.53125 -1.765625 L 3.15625 0 L 0 0 L 3.015625 -11.75 L 6.921875 -11.75 L 9.9375 0 Z M 4.03125 -4.03125 L 5.859375 -4.03125 L 4.96875 -8.265625 Z M 4.03125 -4.03125 "/></g></g></g><g fill="#5271ff" fill-opacity="1"><g transform="translate(145.165629, 243.385194)"><g><path d="M 8.609375 -7.359375 L 5.40625 -7.359375 L 5.40625 -9.25 C 5.40625 -9.519531 5.25 -9.65625 4.9375 -9.65625 L 4.296875 -9.65625 C 3.992188 -9.65625 3.84375 -9.519531 3.84375 -9.25 L 3.84375 -2.515625 C 3.84375 -2.242188 3.992188 -2.109375 4.296875 -2.109375 L 4.9375 -2.109375 C 5.25 -2.109375 5.40625 -2.242188 5.40625 -2.515625 L 5.40625 -4.328125 L 8.609375 -4.328125 L 8.609375 -2.265625 C 8.609375 -0.753906 7.710938 0 5.921875 0 L 3.328125 0 C 1.535156 0 0.640625 -0.753906 0.640625 -2.265625 L 0.640625 -9.484375 C 0.640625 -10.992188 1.535156 -11.75 3.328125 -11.75 L 5.921875 -11.75 C 7.710938 -11.75 8.609375 -10.992188 8.609375 -9.484375 Z M 8.609375 -7.359375 "/></g></g></g><g fill="#5271ff" fill-opacity="1"><g transform="translate(156.057638, 243.385194)"><g><path d="M 3.375 -11.75 L 6.078125 -11.75 C 7.867188 -11.75 8.765625 -10.992188 8.765625 -9.484375 L 8.765625 -2.265625 C 8.765625 -0.753906 7.867188 0 6.078125 0 L 3.375 0 C 1.570312 0 0.671875 -0.753906 0.671875 -2.265625 L 0.671875 -9.484375 C 0.671875 -10.992188 1.570312 -11.75 3.375 -11.75 Z M 5.5625 -2.6875 L 5.5625 -9.0625 C 5.5625 -9.332031 5.410156 -9.46875 5.109375 -9.46875 L 4.34375 -9.46875 C 4.03125 -9.46875 3.875 -9.332031 3.875 -9.0625 L 3.875 -2.6875 C 3.875 -2.414062 4.03125 -2.28125 4.34375 -2.28125 L 5.109375 -2.28125 C 5.410156 -2.28125 5.5625 -2.414062 5.5625 -2.6875 Z M 5.5625 -2.6875 "/></g></g></g><g fill="#5271ff" fill-opacity="1"><g transform="translate(167.334043, 243.385194)"><g><path d="M 3.9375 -2.28125 L 7.578125 -2.28125 L 7.578125 0 L 0.734375 0 L 0.734375 -11.75 L 3.9375 -11.75 Z M 3.9375 -2.28125 "/></g></g></g><g fill="#5271ff" fill-opacity="1"><g transform="translate(176.743378, 243.385194)"><g><path d="M 3.375 -11.75 L 6.078125 -11.75 C 7.867188 -11.75 8.765625 -10.992188 8.765625 -9.484375 L 8.765625 -2.265625 C 8.765625 -0.753906 7.867188 0 6.078125 0 L 3.375 0 C 1.570312 0 0.671875 -0.753906 0.671875 -2.265625 L 0.671875 -9.484375 C 0.671875 -10.992188 1.570312 -11.75 3.375 -11.75 Z M 5.5625 -2.6875 L 5.5625 -9.0625 C 5.5625 -9.332031 5.410156 -9.46875 5.109375 -9.46875 L 4.34375 -9.46875 C 4.03125 -9.46875 3.875 -9.332031 3.875 -9.0625 L 3.875 -2.6875 C 3.875 -2.414062 4.03125 -2.28125 4.34375 -2.28125 L 5.109375 -2.28125 C 5.410156 -2.28125 5.5625 -2.414062 5.5625 -2.6875 Z M 5.5625 -2.6875 "/></g></g></g><g fill="#5271ff" fill-opacity="1"><g transform="translate(188.019784, 243.385194)"><g><path d="M 3.59375 0 L 0.734375 0 L 0.734375 -11.75 L 4.234375 -11.75 L 6.140625 -5.46875 L 8.046875 -11.75 L 11.53125 -11.75 L 11.53125 0 L 8.703125 0 L 8.703125 -7.46875 L 7.234375 -2.546875 L 5.03125 -2.546875 L 3.59375 -7.4375 Z M 3.59375 0 "/></g></g></g><g fill="#5271ff" fill-opacity="1"><g transform="translate(202.115111, 243.385194)"><g><path d="M 5.65625 -7.34375 L 5.65625 -9.25 C 5.65625 -9.519531 5.503906 -9.65625 5.203125 -9.65625 L 3.875 -9.65625 L 3.875 -6.9375 L 5.203125 -6.9375 C 5.503906 -6.9375 5.65625 -7.070312 5.65625 -7.34375 Z M 5.65625 -2.515625 L 5.65625 -4.4375 C 5.65625 -4.695312 5.503906 -4.828125 5.203125 -4.828125 L 3.875 -4.828125 L 3.875 -2.109375 L 5.203125 -2.109375 C 5.503906 -2.109375 5.65625 -2.242188 5.65625 -2.515625 Z M 0.734375 -11.75 L 6.109375 -11.75 C 7.910156 -11.75 8.8125 -10.992188 8.8125 -9.484375 L 8.8125 -7.984375 C 8.8125 -6.921875 8.515625 -6.234375 7.921875 -5.921875 C 8.265625 -5.765625 8.5 -5.535156 8.625 -5.234375 C 8.75 -4.941406 8.8125 -4.539062 8.8125 -4.03125 L 8.8125 -2.265625 C 8.8125 -0.753906 7.910156 0 6.109375 0 L 0.734375 0 Z M 0.734375 -11.75 "/></g></g></g><g fill="#5271ff" fill-opacity="1"><g transform="translate(213.391517, 243.385194)"><g><path d="M 0.734375 -11.75 L 3.9375 -11.75 L 3.9375 0 L 0.734375 0 Z M 0.734375 -11.75 "/></g></g></g><g fill="#5271ff" fill-opacity="1"><g transform="translate(219.890416, 243.385194)"><g><path d="M 6.71875 0 L 6.359375 -1.765625 L 3.53125 -1.765625 L 3.15625 0 L 0 0 L 3.015625 -11.75 L 6.921875 -11.75 L 9.9375 0 Z M 4.03125 -4.03125 L 5.859375 -4.03125 L 4.96875 -8.265625 Z M 4.03125 -4.03125 "/></g></g></g></svg>